<svg xmlns="http://www.w3.org/2000/svg" viewBox="0 0 100 100" width="100" height="100">
  <defs>
    <linearGradient id="doveGradient" x1="0%" y1="0%" x2="100%" y2="100%">
      <stop offset="0%" style="stop-color:#4f46e5;stop-opacity:1" />
      <stop offset="100%" style="stop-color:#7c3aed;stop-opacity:1" />
    </linearGradient>
  </defs>
  
  <!-- Dove body -->
  <ellipse cx="45" cy="55" rx="25" ry="18" fill="url(#doveGradient)" opacity="0.9"/>
  
  <!-- Dove head -->
  <circle cx="35" cy="40" r="12" fill="url(#doveGradient)"/>
  
  <!-- Dove beak -->
  <polygon points="25,38 20,40 25,42" fill="#f59e0b"/>
  
  <!-- Dove eye -->
  <circle cx="32" cy="37" r="2" fill="white"/>
  <circle cx="33" cy="36" r="1" fill="#1f2937"/>
  
  <!-- Dove wing -->
  <path d="M 45 45 Q 65 35 75 45 Q 70 55 60 60 Q 50 58 45 55 Z" fill="url(#doveGradient)" opacity="0.8"/>
  
  <!-- Wing details -->
  <path d="M 50 48 Q 60 45 65 50" stroke="white" stroke-width="1" fill="none" opacity="0.6"/>
  <path d="M 52 52 Q 58 50 62 54" stroke="white" stroke-width="1" fill="none" opacity="0.4"/>
  
  <!-- Dove tail -->
  <path d="M 65 60 Q 75 65 80 70 Q 75 72 70 68 Q 68 65 65 62 Z" fill="url(#doveGradient)" opacity="0.7"/>
  
  <!-- Olive branch -->
  <path d="M 20 40 Q 15 35 10 30" stroke="#10b981" stroke-width="2" fill="none"/>
  <ellipse cx="12" cy="32" rx="2" ry="1" fill="#10b981"/>
  <ellipse cx="14" cy="30" rx="1.5" ry="0.8" fill="#10b981"/>
  <ellipse cx="16" cy="28" rx="1" ry="0.6" fill="#10b981"/>
  
  <!-- Light rays -->
  <g opacity="0.3">
    <line x1="35" y1="25" x2="35" y2="15" stroke="#fbbf24" stroke-width="2"/>
    <line x1="45" y1="28" x2="50" y2="20" stroke="#fbbf24" stroke-width="1.5"/>
    <line x1="25" y1="28" x2="20" y2="20" stroke="#fbbf24" stroke-width="1.5"/>
  </g>
</svg>
